<?xml version="1.0" encoding="iso-8859-1"?>
<!-- Generator: Adobe Illustrator 19.0.0, SVG Export Plug-In . SVG Version: 6.00 Build 0)  -->
<svg version="1.1" id="Layer_1" xmlns="http://www.w3.org/2000/svg" xmlns:xlink="http://www.w3.org/1999/xlink" x="0px" y="0px"
	 viewBox="0 0 512 512" style="enable-background:new 0 0 512 512;" xml:space="preserve">
	  <defs>
			<linearGradient id="linear" x1="0%" y1="0%" x2="100%" y2="0%">
				<stop offset="0%"   stop-color="#fff"/>
				<stop offset="50%"  stop-color="#aaa"/>
				<stop offset="100%" stop-color="#fff"/>
			</linearGradient>
		 </defs>
<g>
	<path style="fill:#DB504A;" d="M80.252,404.5c-3.062-1.668-5.553-3.848-7.396-6.488l5.956-4.169
		c1.196,1.711,2.847,3.148,4.919,4.274L80.252,404.5z"/>
	<path style="fill:#DB504A;" d="M99.956,408.606c-0.542,0-1.077-0.007-1.605-0.02l0.188-7.264c4.75,0.135,10.2-0.34,16.242-1.328
		l1.176,7.168C110.123,408.123,104.742,408.606,99.956,408.606z M132.915,403.393l-1.903-7.013
		c5.077-1.381,10.461-3.052,16.007-4.971l2.375,6.864C143.697,400.249,138.154,401.97,132.915,403.393z M165.488,392.242
		l-2.715-6.742c4.998-2.012,10.217-4.238,15.512-6.62l2.98,6.626C175.88,387.924,170.575,390.194,165.488,392.242z M196.763,378.216
		l-3.201-6.524c4.938-2.425,10.005-5.008,15.063-7.67l3.392,6.425C206.898,373.149,201.768,375.762,196.763,378.216z
		 M227.037,362.271l-3.558-6.336c4.836-2.715,9.721-5.536,14.656-8.466l3.71,6.253C236.861,356.679,231.923,359.53,227.037,362.271z
		 M256.439,344.834l-3.848-6.167c4.727-2.95,9.48-5.989,14.253-9.12l3.987,6.078C266.012,338.785,261.209,341.851,256.439,344.834z
		 M285.032,326.114l-4.109-5.992c2.319-1.589,4.641-3.201,6.967-4.829c2.319-1.622,4.621-3.25,6.907-4.885l4.225,5.916
		c-2.302,1.642-4.625,3.283-6.963,4.922C289.713,322.887,287.371,324.509,285.032,326.114z M312.809,306.229l-4.347-5.82
		c4.575-3.419,9.061-6.848,13.447-10.28l4.476,5.721C321.956,299.315,317.43,302.777,312.809,306.229z M339.74,285.174l-4.608-5.619
		c4.436-3.637,8.76-7.264,12.968-10.878l4.737,5.51C348.583,277.838,344.219,281.508,339.74,285.174z M365.66,262.864l-4.885-5.381
		c4.228-3.835,8.39-7.716,12.364-11.532l5.031,5.239C374.153,255.055,369.941,258.983,365.66,262.864z M390.332,239.124l-5.206-5.07
		c4.03-4.142,7.908-8.281,11.522-12.308l5.407,4.859C398.376,230.701,394.428,234.909,390.332,239.124z M413.243,213.54
		l-5.645-4.582c3.706-4.565,7.122-9.051,10.151-13.338l5.936,4.195C420.56,204.235,417.049,208.853,413.243,213.54z
		 M433.023,185.166l-6.329-3.567c3.003-5.328,5.298-10.309,6.815-14.805l6.884,2.329
		C438.728,174.04,436.247,179.441,433.023,185.166z"/>
	<path style="fill:#DB504A;" d="M435.573,151.747c-0.35-2.329-1.136-4.373-2.332-6.085l5.956-4.169
		c1.846,2.636,3.046,5.718,3.564,9.166L435.573,151.747z"/>
	<path style="fill:#DB504A;" d="M412.11,408.596c-42.899,0.003-122.507-38.552-192.185-87.341
		C129.896,258.216,50.245,173.746,72.8,141.504l5.956,4.169c-15.386,21.999,39.338,95.414,145.339,169.631
		c106.001,74.23,193.698,100.544,209.101,78.551l5.956,4.169C434.041,405.306,424.643,408.596,412.11,408.596z"/>
</g>
<path style="fill:#242D3C;" d="M334.894,61.11H177.135c-14.934,0-27.182,12.219-27.182,27.202v335.396
	c0,14.964,12.248,27.182,27.182,27.182h157.759c14.954,0,27.153-12.215,27.153-27.182V88.312
	C362.047,73.328,349.848,61.11,334.894,61.11z"/>
<rect x="165.326" y="120.039" style="fill:#084C61;" width="181.337" height="271.955"/>
<g>
	<path style="fill:#3E4959;" d="M239.196,429.839c-4.013,0-7.284-3.27-7.284-7.31v-2.193c0-4.046,3.27-7.297,7.284-7.297h33.62
		c4.003,0,7.267,3.25,7.267,7.297v2.193c0,4.04-3.264,7.31-7.267,7.31H239.196z"/>
	<path style="fill:#3E4959;" d="M262.861,90.561c0,3.785-3.055,6.824-6.831,6.824c-3.772,0-6.841-3.039-6.841-6.824
		c0-3.769,3.072-6.848,6.841-6.848C259.805,83.714,262.861,86.792,262.861,90.561z"/>
</g>
<path style="fill:#DB504A;" d="M258.748,90.561c0,1.503-1.212,2.709-2.719,2.709c-1.513,0-2.745-1.206-2.745-2.709
	c0-1.5,1.232-2.748,2.745-2.748C257.536,87.813,258.748,89.062,258.748,90.561z"/>
<circle style="fill:url(#linear);" cx="256" cy="198.689" r="54.503">
	<animate attributeType="XML" attributeName="r" values="54;60;54" 
        dur="0.3s" repeatCount="indefinite"/>
</circle>
<g>
	<path style="fill:#DB504A;" d="M72.859,398.012c-22.568-32.226,57.08-116.696,147.116-179.745
		c90.023-63.042,196.644-109.003,219.219-76.77l-5.949,4.169c-15.426-21.98-103.11,4.331-209.104,78.557
		C118.137,298.453,63.412,371.857,78.805,393.847L72.859,398.012z"/>
	<path style="fill:#DB504A;" d="M439.147,398.019l-5.956-4.169c1.199-1.714,1.989-3.759,2.335-6.085l7.188,1.083
		C442.196,392.298,440.997,395.38,439.147,398.019z"/>
	<path style="fill:#DB504A;" d="M433.482,372.769c-1.52-4.492-3.809-9.477-6.811-14.815l6.336-3.561
		c3.221,5.731,5.698,11.132,7.36,16.047L433.482,372.769z M417.729,343.929c-3.029-4.291-6.441-8.777-10.151-13.335l5.639-4.588
		c3.812,4.691,7.33,9.309,10.448,13.735L417.729,343.929z M396.635,317.807c-3.634-4.043-7.508-8.185-11.525-12.308l5.206-5.07
		c4.083,4.195,8.03,8.407,11.726,12.519L396.635,317.807z M373.129,293.601c-3.947-3.795-8.106-7.677-12.361-11.535l4.885-5.381
		c4.304,3.904,8.512,7.832,12.516,11.677L373.129,293.601z M348.084,270.874c-4.202-3.617-8.522-7.244-12.962-10.874l4.601-5.625
		c4.482,3.667,8.856,7.336,13.104,10.99L348.084,270.874z M321.906,249.423c-4.393-3.435-8.879-6.864-13.451-10.286l4.354-5.82
		c4.611,3.455,9.143,6.917,13.573,10.379L321.906,249.423z M294.783,229.138c-2.292-1.642-4.608-3.28-6.94-4.915
		c-2.309-1.615-4.618-3.217-6.93-4.8l4.109-5.992c2.329,1.595,4.658,3.211,6.99,4.843c2.355,1.652,4.687,3.303,7,4.958
		L294.783,229.138z M266.848,209.993c-4.776-3.128-9.536-6.174-14.26-9.124l3.845-6.167c4.773,2.98,9.573,6.052,14.395,9.213
		L266.848,209.993z M238.13,192.069c-4.928-2.93-9.82-5.748-14.653-8.466l3.561-6.336c4.885,2.745,9.82,5.596,14.798,8.552
		L238.13,192.069z M208.622,175.514c-5.047-2.662-10.114-5.242-15.063-7.67l3.201-6.524c5.014,2.458,10.141,5.07,15.251,7.769
		L208.622,175.514z M178.278,160.656c-5.292-2.378-10.511-4.608-15.509-6.62l2.715-6.742c5.09,2.051,10.395,4.317,15.773,6.735
		L178.278,160.656z M147.013,148.123c-5.53-1.913-10.917-3.587-16.014-4.978l1.916-7.013c5.246,1.437,10.788,3.158,16.47,5.12
		L147.013,148.123z M114.767,139.535c-5.437-0.898-10.422-1.358-14.812-1.358c-0.013,0-0.026,0-0.043,0l-1.404,0.017l-0.142-7.264
		l1.543-0.017c0.017,0,0.033,0,0.05,0c4.783,0,10.167,0.486,15.998,1.453L114.767,139.535z"/>
	<path style="fill:#DB504A;" d="M78.756,145.672l-5.956-4.169c1.853-2.643,4.34-4.823,7.403-6.488l3.468,6.388
		C81.606,142.521,79.951,143.961,78.756,145.672z"/>
</g>
<path style="fill:#DB504A;" d="M282.426,198.696c0,14.594-11.842,26.426-26.426,26.426c-14.594,0-26.426-11.832-26.426-26.426
	c0-14.594,11.832-26.426,26.426-26.426C270.584,172.27,282.426,184.102,282.426,198.696z"/>
<g>
	<rect x="198.194" y="304.392" style="fill:#FFFFFF;" width="115.613" height="14.699"/>
	<rect x="198.194" y="326.425" style="fill:#FFFFFF;" width="115.613" height="14.68"/>
</g>
<rect x="227.097" y="355.757" style="fill:#DB504A;" width="57.806" height="14.68"/>
<g>
	<rect x="198.194" y="304.392" style="fill:#00B9AE;" width="81.266" height="14.699">
		<animate attributeType="XML" attributeName="width" values="10;115.613;10"
        dur="2.5s" repeatCount="indefinite"/>
	</rect>
	<rect x="198.194" y="326.425" style="fill:#00B9AE;" width="40.035" height="14.68">
			<animate attributeType="XML" attributeName="width" values="10;60;10"
        dur="1.5s" repeatCount="indefinite"/>
	</rect>
</g>
<g>
</g>
<g>
</g>
<g>
</g>
<g>
</g>
<g>
</g>
<g>
</g>
<g>
</g>
<g>
</g>
<g>
</g>
<g>
</g>
<g>
</g>
<g>
</g>
<g>
</g>
<g>
</g>
<g>
</g>
</svg>
